999
Inkscape export via OpenSCAD DXF Export
  0
SECTION
  2
HEADER
  9
$ACADVER
  1
AC1014
  9
$HANDSEED
  5
FFFF
  9
$MEASUREMENT
 70
     1
  0
ENDSEC
  0
SECTION
  2
TABLES
  0
TABLE
  2
VPORT
  5
8
330
0
100
AcDbSymbolTable
 70
     4
  0
VPORT
  5
2E
330
8
100
AcDbSymbolTableRecord
100
AcDbViewportTableRecord
  2
*ACTIVE
 70
     0
 10
0.0
 20
0.0
 11
1.0
 21
1.0
 12
210.0
 22
148.5
 13
0.0
 23
0.0
 14
10.0
 24
10.0
 15
10.0
 25
10.0
 16
0.0
 26
0.0
 36
1.0
 17
0.0
 27
0.0
 37
0.0
 40
341.0
 41
1.24
 42
50.0
 43
0.0
 44
0.0
 50
0.0
 51
0.0
 71
     0
 72
   100
 73
     1
 74
     3
 75
     0
 76
     0
 77
     0
 78
     0
  0
ENDTAB
  0
TABLE
  2
LTYPE
  5
5
330
0
100
AcDbSymbolTable
 70
     1
  0
LTYPE
  5
14
330
5
100
AcDbSymbolTableRecord
100
AcDbLinetypeTableRecord
  2
BYBLOCK
 70
     0
  3

 72
    65
 73
     0
 40
0.0
  0
LTYPE
  5
15
330
5
100
AcDbSymbolTableRecord
100
AcDbLinetypeTableRecord
  2
BYLAYER
 70
     0
  3

 72
    65
 73
     0
 40
0.0
  0
LTYPE
  5
16
330
5
100
AcDbSymbolTableRecord
100
AcDbLinetypeTableRecord
  2
CONTINUOUS
 70
     0
  3
Solid line
 72
    65
 73
     0
 40
0.0
  0
ENDTAB
  0
TABLE
0
TABLE
2
LAYER
5
2
330
0
100
AcDbSymbolTable
70
1
0
LAYER
5
10
330
2
100
AcDbSymbolTableRecord
100
AcDbLayerTableRecord
2
Layer_1
70
0
62
7
6
CONTINUOUS
0
ENDTAB
0
ENDSEC
  0
ENDTAB
  0
TABLE
  2
STYLE
  5
3
330
0
100
AcDbSymbolTable
 70
     1
  0
STYLE
  5
11
330
3
100
AcDbSymbolTableRecord
100
AcDbTextStyleTableRecord
  2
STANDARD
 70
     0
 40
0.0
 41
1.0
 50
0.0
 71
     0
 42
2.5
  3
txt
  4

  0
ENDTAB
  0
TABLE
  2
VIEW
  5
6
330
0
100
AcDbSymbolTable
 70
     0
  0
ENDTAB
  0
TABLE
  2
UCS
  5
7
330
0
100
AcDbSymbolTable
 70
     0
  0
ENDTAB
  0
TABLE
  2
APPID
  5
9
330
0
100
AcDbSymbolTable
 70
     2
  0
APPID
  5
12
330
9
100
AcDbSymbolTableRecord
100
AcDbRegAppTableRecord
  2
ACAD
 70
     0
  0
ENDTAB
  0
TABLE
  2
DIMSTYLE
  5
A
330
0
100
AcDbSymbolTable
 70
     1
  0
DIMSTYLE
105
27
330
A
100
AcDbSymbolTableRecord
100
AcDbDimStyleTableRecord
  2
ISO-25
 70
     0
  3

  4

  5

  6

  7

 40
1.0
 41
2.5
 42
0.625
 43
3.75
 44
1.25
 45
0.0
 46
0.0
 47
0.0
 48
0.0
140
2.5
141
2.5
142
0.0
143
0.03937007874016
144
1.0
145
0.0
146
1.0
147
0.625
 71
     0
 72
     0
 73
     0
 74
     0
 75
     0
 76
     0
 77
     1
 78
     8
170
     0
171
     3
172
     1
173
     0
174
     0
175
     0
176
     0
177
     0
178
     0
270
     2
271
     2
272
     2
273
     2
274
     3
340
11
275
     0
280
     0
281
     0
282
     0
283
     0
284
     8
285
     0
286
     0
287
     3
288
     0
  0
ENDTAB
  0
TABLE
  2
BLOCK_RECORD
  5
1
330
0
100
AcDbSymbolTable
 70
     1
  0
BLOCK_RECORD
  5
1F
330
1
100
AcDbSymbolTableRecord
100
AcDbBlockTableRecord
  2
*MODEL_SPACE
  0
BLOCK_RECORD
  5
1B
330
1
100
AcDbSymbolTableRecord
100
AcDbBlockTableRecord
  2
*PAPER_SPACE
  0
ENDTAB
  0
ENDSEC
  0
SECTION
  2
BLOCKS
  0
BLOCK
  5
20
330
1F
100
AcDbEntity
  8
0
100
AcDbBlockBegin
  2
*MODEL_SPACE
 70
     0
 10
0.0
 20
0.0
 30
0.0
  3
*MODEL_SPACE
  1

  0
ENDBLK
  5
21
330
1F
100
AcDbEntity
  8
0
100
AcDbBlockEnd
  0
BLOCK
  5
1C
330
1B
100
AcDbEntity
 67
     1
  8
0
100
AcDbBlockBegin
  2
*PAPER_SPACE
  1

  0
ENDBLK
  5
1D
330
1B
100
AcDbEntity
 67
     1
  8
0
100
AcDbBlockEnd
  0
ENDSEC
  0
SECTION
  2
ENTITIES
0
DIMENSION
5
83
100
AcDbEntity
62
256
370
-1
6
ByLayer
1
total_width
3
Standard
70
0
71
5
72
1
41
1.0
100
AcDbAlignedDimension
13
0.000094
23
0.000000
33
0.0
14
10.666308
24
0.000000
34
0.0
50
0.000000
100
AcDbRotatedDimension
0
DIMENSION
5
83
100
AcDbEntity
62
256
370
-1
6
ByLayer
1
total_minx
3
Standard
70
0
71
5
72
1
41
1.0
100
AcDbAlignedDimension
13
0.000094
23
0.000000
33
0.0
14
0.000000
24
0.000000
34
0.0
50
0.000000
100
AcDbRotatedDimension
0
DIMENSION
5
83
100
AcDbEntity
62
256
370
-1
6
ByLayer
1
total_maxx
3
Standard
70
0
71
5
72
1
41
1.0
100
AcDbAlignedDimension
13
0.000000
23
0.000000
33
0.0
14
10.666308
24
0.000000
34
0.0
50
0.000000
100
AcDbRotatedDimension
0
DIMENSION
5
83
100
AcDbEntity
62
256
370
-1
6
ByLayer
1
total_height
3
Standard
70
0
71
5
72
1
41
1.0
100
AcDbAlignedDimension
13
0.000000
23
-0.000000
33
0.0
14
0.000000
24
10.666668
34
0.0
50
90.000000
100
AcDbRotatedDimension
0
DIMENSION
5
83
100
AcDbEntity
62
256
370
-1
6
ByLayer
1
total_miny
3
Standard
70
0
71
5
72
1
41
1.0
100
AcDbAlignedDimension
13
-0.000000
23
0.000000
33
0.0
14
0.000000
24
0.000000
34
0.0
50
0.000000
100
AcDbRotatedDimension
0
DIMENSION
5
83
100
AcDbEntity
62
256
370
-1
6
ByLayer
1
total_maxy
3
Standard
70
0
71
5
72
1
41
1.0
100
AcDbAlignedDimension
13
0.000000
23
0.000000
33
0.0
14
10.666668
24
0.000000
34
0.0
50
0.000000
100
AcDbRotatedDimension
0
DIMENSION
8
Layer_1
5
83
100
AcDbEntity
62
256
370
-1
6
ByLayer
1
Layer_1_width
3
Standard
70
0
71
5
72
1
41
1.0
100
AcDbAlignedDimension
13
0.000094
23
0.000000
33
0.0
14
10.666308
24
0.000000
34
0.0
50
0.000000
100
AcDbRotatedDimension
0
DIMENSION
8
Layer_1
5
83
100
AcDbEntity
62
256
370
-1
6
ByLayer
1
Layer_1_minx
3
Standard
70
0
71
5
72
1
41
1.0
100
AcDbAlignedDimension
13
0.000094
23
0.000000
33
0.0
14
0.000000
24
0.000000
34
0.0
50
0.000000
100
AcDbRotatedDimension
0
DIMENSION
8
Layer_1
5
83
100
AcDbEntity
62
256
370
-1
6
ByLayer
1
Layer_1_maxx
3
Standard
70
0
71
5
72
1
41
1.0
100
AcDbAlignedDimension
13
0.000000
23
0.000000
33
0.0
14
10.666308
24
0.000000
34
0.0
50
0.000000
100
AcDbRotatedDimension
0
DIMENSION
8
Layer_1
5
83
100
AcDbEntity
62
256
370
-1
6
ByLayer
1
Layer_1_height
3
Standard
70
0
71
5
72
1
41
1.0
100
AcDbAlignedDimension
13
0.000000
23
-0.000000
33
0.0
14
0.000000
24
10.666668
34
0.0
50
90.000000
100
AcDbRotatedDimension
0
DIMENSION
8
Layer_1
5
83
100
AcDbEntity
62
256
370
-1
6
ByLayer
1
Layer_1_miny
3
Standard
70
0
71
5
72
1
41
1.0
100
AcDbAlignedDimension
13
-0.000000
23
0.000000
33
0.0
14
0.000000
24
0.000000
34
0.0
50
0.000000
100
AcDbRotatedDimension
0
DIMENSION
8
Layer_1
5
83
100
AcDbEntity
62
256
370
-1
6
ByLayer
1
Layer_1_maxy
3
Standard
70
0
71
5
72
1
41
1.0
100
AcDbAlignedDimension
13
0.000000
23
0.000000
33
0.0
14
10.666668
24
0.000000
34
0.0
50
0.000000
100
AcDbRotatedDimension
62
0
0
LWPOLYLINE
100
AcDbPolyline
8
Layer_1
90
10
70
0
10
4.993104
20
0.241932
30
0.0
10
4.578293
20
0.503332
30
0.0
10
5.407352
20
1.580707
30
0.0
10
6.511027
20
2.996918
30
0.0
10
6.796187
20
3.350127
30
0.0
10
6.515756
20
2.637019
30
0.0
10
5.840934
20
0.964503
30
0.0
10
5.432501
20
-0.000000
30
0.0
10
4.993104
20
0.241932
30
0.0
10
4.993104
20
0.241932
30
0.0
62
0
0
LWPOLYLINE
100
AcDbPolyline
8
Layer_1
90
10
70
0
10
3.429402
20
0.592997
30
0.0
10
3.092294
20
0.964271
30
0.0
10
4.093669
20
1.642688
30
0.0
10
5.614234
20
2.672255
30
0.0
10
6.133423
20
3.023407
30
0.0
10
5.558690
20
2.336602
30
0.0
10
4.390765
20
0.941194
30
0.0
10
3.782043
20
0.227155
30
0.0
10
3.429402
20
0.592997
30
0.0
10
3.429402
20
0.592997
30
0.0
62
0
0
LWPOLYLINE
100
AcDbPolyline
8
Layer_1
90
11
70
0
10
7.082552
20
0.550692
30
0.0
10
6.642572
20
0.599877
30
0.0
10
6.981691
20
2.125305
30
0.0
10
7.420197
20
3.901392
30
0.0
10
7.485579
20
4.152838
30
0.0
10
7.547151
20
2.469989
30
0.0
10
7.611944
20
0.647497
30
0.0
10
7.620044
20
0.502979
30
0.0
10
7.551848
20
0.504955
30
0.0
10
7.082553
20
0.550573
30
0.0
10
7.082552
20
0.550692
30
0.0
62
0
0
LWPOLYLINE
100
AcDbPolyline
8
Layer_1
90
6
70
0
10
8.014894
20
1.237273
30
0.0
10
7.760856
20
4.879312
30
0.0
10
8.992198
20
1.478669
30
0.0
10
8.714933
20
1.386510
30
0.0
10
8.014894
20
1.237273
30
0.0
10
8.014894
20
1.237273
30
0.0
62
0
0
LWPOLYLINE
100
AcDbPolyline
8
Layer_1
90
8
70
0
10
1.657245
20
1.764241
30
0.0
10
1.510711
20
2.249641
30
0.0
10
5.080302
20
2.883495
30
0.0
10
4.437172
20
2.563644
30
0.0
10
3.108869
20
1.913969
30
0.0
10
1.813823
20
1.286171
30
0.0
10
1.657245
20
1.764241
30
0.0
10
1.657245
20
1.764241
30
0.0
62
0
0
LWPOLYLINE
100
AcDbPolyline
8
Layer_1
90
7
70
0
10
0.720929
20
3.076324
30
0.0
10
0.744249
20
3.580505
30
0.0
10
2.547088
20
3.333518
30
0.0
10
4.272748
20
3.071681
30
0.0
10
0.743014
20
2.572842
30
0.0
10
0.720929
20
3.076324
30
0.0
10
0.720929
20
3.076324
30
0.0
62
0
0
LWPOLYLINE
100
AcDbPolyline
8
Layer_1
90
9
70
0
10
9.390549
20
2.819922
30
0.0
10
8.026898
20
5.388604
30
0.0
10
7.736123
20
5.938703
30
0.0
10
7.851516
20
5.817494
30
0.0
10
9.119801
20
4.499249
30
0.0
10
10.272691
20
3.293189
30
0.0
10
9.462577
20
2.703375
30
0.0
10
9.390549
20
2.819922
30
0.0
10
9.390549
20
2.819922
30
0.0
62
0
0
LWPOLYLINE
100
AcDbPolyline
8
Layer_1
90
9
70
0
10
2.801048
20
3.871059
30
0.0
10
1.069372
20
4.371204
30
0.0
10
0.000094
20
4.685696
30
0.0
10
0.395883
20
5.609161
30
0.0
10
1.899249
20
4.678350
30
0.0
10
3.454002
20
3.707302
30
0.0
10
3.491314
20
3.674688
30
0.0
10
2.801048
20
3.871059
30
0.0
10
2.801048
20
3.871059
30
0.0
62
0
0
LWPOLYLINE
100
AcDbPolyline
8
Layer_1
90
9
70
0
10
8.836196
20
5.307347
30
0.0
10
7.520963
20
6.582901
30
0.0
10
8.472408
20
6.110853
30
0.0
10
10.090135
20
5.249076
30
0.0
10
10.666308
20
4.914206
30
0.0
10
10.375507
20
4.512174
30
0.0
10
10.088500
20
4.118155
30
0.0
10
8.836196
20
5.307347
30
0.0
10
8.836196
20
5.307347
30
0.0
62
0
0
LWPOLYLINE
100
AcDbPolyline
8
Layer_1
90
10
70
0
10
1.541783
20
5.353151
30
0.0
10
0.058649
20
6.376131
30
0.0
10
0.383791
20
6.759295
30
0.0
10
0.708934
20
7.124762
30
0.0
10
0.759100
20
7.072508
30
0.0
10
1.589772
20
6.087883
30
0.0
10
2.704163
20
4.758046
30
0.0
10
3.031485
20
4.354226
30
0.0
10
1.541783
20
5.353151
30
0.0
10
1.541783
20
5.353151
30
0.0
62
0
0
LWPOLYLINE
100
AcDbPolyline
8
Layer_1
90
6
70
0
10
1.859946
20
6.891356
30
0.0
10
0.919062
20
8.446524
30
0.0
10
1.824226
20
8.840693
30
0.0
10
2.821782
20
5.356493
30
0.0
10
1.859946
20
6.891356
30
0.0
10
1.859946
20
6.891356
30
0.0
62
0
0
LWPOLYLINE
100
AcDbPolyline
8
Layer_1
90
6
70
0
10
8.482250
20
6.776232
30
0.0
10
6.850473
20
7.398743
30
0.0
10
10.386020
20
7.154883
30
0.0
10
10.177997
20
6.165666
30
0.0
10
8.482250
20
6.776232
30
0.0
10
8.482250
20
6.776232
30
0.0
62
0
0
LWPOLYLINE
100
AcDbPolyline
8
Layer_1
90
8
70
0
10
2.784712
20
8.106187
30
0.0
10
2.535065
20
9.905943
30
0.0
10
2.525627
20
9.975870
30
0.0
10
3.031791
20
9.975870
30
0.0
10
3.538397
20
9.961900
30
0.0
10
3.037642
20
6.409286
30
0.0
10
2.784712
20
8.106201
30
0.0
10
2.784712
20
8.106187
30
0.0
62
0
0
LWPOLYLINE
100
AcDbPolyline
8
Layer_1
90
8
70
0
10
3.453486
20
7.057548
30
0.0
10
3.770193
20
8.854372
30
0.0
10
4.085614
20
10.604091
30
0.0
10
5.044437
20
10.303340
30
0.0
10
4.309727
20
8.780853
30
0.0
10
3.506842
20
7.132136
30
0.0
10
3.453486
20
7.057548
30
0.0
10
3.453486
20
7.057548
30
0.0
62
0
0
LWPOLYLINE
100
AcDbPolyline
8
Layer_1
90
7
70
0
10
7.679537
20
7.690135
30
0.0
10
6.084467
20
7.761433
30
0.0
10
9.593614
20
8.628290
30
0.0
10
9.694362
20
7.668881
30
0.0
10
9.503140
20
7.628870
30
0.0
10
7.679537
20
7.690135
30
0.0
10
7.679537
20
7.690135
30
0.0
62
0
0
LWPOLYLINE
100
AcDbPolyline
8
Layer_1
90
9
70
0
10
4.659814
20
8.204364
30
0.0
10
5.562125
20
9.546979
30
0.0
10
6.200674
20
10.493756
30
0.0
10
6.320076
20
10.666668
30
0.0
10
6.401373
20
10.596318
30
0.0
10
7.062479
20
9.991200
30
0.0
10
4.312958
20
7.663589
30
0.0
10
4.659814
20
8.204364
30
0.0
10
4.659814
20
8.204364
30
0.0
62
0
0
LWPOLYLINE
100
AcDbPolyline
8
Layer_1
90
10
70
0
10
5.039743
20
7.865169
30
0.0
10
5.925894
20
8.559879
30
0.0
10
7.347781
20
9.670446
30
0.0
10
7.902175
20
10.104080
30
0.0
10
8.154290
20
9.662702
30
0.0
10
8.364783
20
9.199829
30
0.0
10
7.409028
20
8.809919
30
0.0
10
5.851270
20
8.181012
30
0.0
10
5.039743
20
7.865169
30
0.0
10
5.039743
20
7.865169
30
0.0
  0
ENDSEC
  0
SECTION
  2
OBJECTS
  0
DICTIONARY
  5
C
330
0
100
AcDbDictionary
  3
ACAD_GROUP
350
D
  3
ACAD_MLINESTYLE
350
17
  0
DICTIONARY
  5
D
330
C
100
AcDbDictionary
  0
DICTIONARY
  5
1A
330
C
100
AcDbDictionary
  0
DICTIONARY
  5
17
330
C
100
AcDbDictionary
  3
STANDARD
350
18
  0
DICTIONARY
  5
19
330
C
100
AcDbDictionary
  0
ENDSEC
  0
EOF
